<?xml version="1.0" encoding="UTF-8"?>
<!DOCTYPE svg PUBLIC "-//W3C//DTD SVG 1.1//EN" "http://www.w3.org/Graphics/SVG/1.1/DTD/svg11.dtd">
<!-- Creator: CorelDRAW X7 -->
<svg xmlns="http://www.w3.org/2000/svg" xml:space="preserve" width="210mm" height="210mm" version="1.1" style="shape-rendering:geometricPrecision; text-rendering:geometricPrecision; image-rendering:optimizeQuality; fill-rule:evenodd; clip-rule:evenodd"
viewBox="0 0 7526 7526"
 xmlns:xlink="http://www.w3.org/1999/xlink">
 <defs>
  <style type="text/css">
   <![CDATA[
    .fil0 {fill:#FEFEFE}
   ]]>
  </style>
 </defs>
 <g id="Слой_x0020_1">
  <metadata id="CorelCorpID_0Corel-Layer"/>
  <g id="_1472318682640">
   <g>
    <path class="fil0" d="M3763 0c-2075,0 -3763,1688 -3763,3763 0,2075 1688,3763 3763,3763 2075,0 3763,-1688 3763,-3763 0,-2075 -1688,-3763 -3763,-3763zm0 7184c-1886,0 -3421,-1534 -3421,-3421 0,-1886 1535,-3421 3421,-3421 1887,0 3421,1535 3421,3421 0,1887 -1534,3421 -3421,3421z"/>
    <path class="fil0" d="M5645 4105c-95,0 -171,77 -171,171 0,943 -768,1711 -1711,1711 -943,0 -1710,-768 -1710,-1711 0,-94 -77,-171 -171,-171 -95,0 -171,77 -171,171 0,1132 920,2053 2052,2053 1132,0 2053,-921 2053,-2053 0,-94 -77,-171 -171,-171z"/>
    <path class="fil0" d="M2224 2395c283,0 513,230 513,513 0,94 76,171 171,171 94,0 171,-77 171,-171 0,-472 -384,-855 -855,-855 -472,0 -856,383 -856,855 0,94 77,171 171,171 95,0 172,-77 172,-171 0,-283 230,-513 513,-513z"/>
    <path class="fil0" d="M5303 2053c-472,0 -856,383 -856,855 0,94 77,171 171,171 95,0 171,-77 171,-171 0,-283 231,-513 514,-513 283,0 513,230 513,513 0,94 76,171 171,171 94,0 171,-77 171,-171 0,-472 -384,-855 -855,-855z"/>
   </g>
   <g>
   </g>
   <g>
   </g>
   <g>
   </g>
   <g>
   </g>
   <g>
   </g>
   <g>
   </g>
   <g>
   </g>
   <g>
   </g>
   <g>
   </g>
   <g>
   </g>
   <g>
   </g>
   <g>
   </g>
   <g>
   </g>
   <g>
   </g>
   <g>
   </g>
  </g>
 </g>
</svg>
