<?xml version="1.0" encoding="UTF-8"?>
<!DOCTYPE svg PUBLIC "-//W3C//DTD SVG 1.1//EN" "http://www.w3.org/Graphics/SVG/1.1/DTD/svg11.dtd">
<!-- Creator: CorelDRAW X7 -->
<svg xmlns="http://www.w3.org/2000/svg" xml:space="preserve" width="22.5696mm" height="22.5696mm" version="1.1" style="shape-rendering:geometricPrecision; text-rendering:geometricPrecision; image-rendering:optimizeQuality; fill-rule:evenodd; clip-rule:evenodd"
viewBox="0 0 382 382"
 xmlns:xlink="http://www.w3.org/1999/xlink">
 <defs>
  <style type="text/css">
   <![CDATA[
    .fil0 {fill:#FEFEFE}
   ]]>
  </style>
 </defs>
 <g id="Слой_x0020_1">
  <metadata id="CorelCorpID_0Corel-Layer"/>
  <g id="_2953412920320">
   <path class="fil0" d="M192 297c-20,0 -34,-5 -50,-12 -3,-2 -9,-5 -12,-8 -1,0 -2,-1 -4,-2 -1,-1 -2,-2 -3,-3 -1,-1 -1,-1 -2,-2 -1,0 -1,0 -2,-1 -11,-11 -13,-13 -20,-26l-2 -4c-1,-1 -2,-2 -2,-4 -4,-8 -5,-10 -7,-20 -5,-21 -4,-44 4,-64 2,-4 4,-9 7,-13 3,-6 9,-14 14,-19 2,-3 1,-2 5,-5 0,0 1,-1 1,-1 5,-5 14,-11 19,-14l13 -6c26,-11 54,-11 79,-1 2,1 3,2 5,2l6 4c6,3 13,7 18,12 1,1 2,1 3,3l7 6c6,6 10,14 15,21 0,1 0,1 1,2 4,9 6,14 9,24 6,25 2,51 -9,73 0,1 0,1 -1,2 -2,4 -3,6 -6,10 -2,3 -4,5 -6,7 0,1 -1,1 -1,2l-6 6c-7,7 -11,11 -21,16 -2,1 -3,2 -4,3 -13,7 -32,12 -48,12zm105 -232c0,-7 1,-11 6,-16 6,-6 16,-8 24,-4 4,2 8,5 10,9 3,6 3,13 0,19 -3,6 -10,12 -17,12 -7,0 -12,-2 -17,-7 -3,-3 -6,-8 -6,-13zm-297 38l0 176c0,8 1,16 3,22 1,4 2,7 3,10 1,1 1,3 2,5 3,8 6,13 11,21 1,0 1,1 2,1 0,1 0,1 1,2 2,3 4,5 6,7l3 4c1,0 1,0 2,1 3,3 3,4 8,7 8,6 11,8 20,13 5,2 14,5 19,6 6,2 15,4 23,4l176 0c16,0 35,-6 50,-15 4,-2 10,-7 15,-10l18 -20c4,-5 7,-11 10,-16 0,-2 1,-3 1,-5 5,-11 8,-24 8,-37l0 -177c0,-11 -2,-22 -6,-32 0,-1 -1,-3 -1,-4 -1,-2 -2,-4 -2,-5 -4,-7 -8,-14 -12,-20 -2,-2 -4,-5 -6,-7 -1,-1 -2,-2 -3,-3l-7 -6c-1,-1 -2,-2 -4,-3 -1,-1 -2,-2 -3,-3 -5,-3 -11,-6 -17,-9 -9,-5 -27,-10 -41,-10l-176 0c-8,0 -16,1 -23,3 -5,1 -14,4 -19,7 -9,4 -19,11 -27,18 -1,1 -2,2 -3,3 -18,18 -31,46 -31,72z"/>
   <path class="fil0" d="M127 188c0,8 0,11 2,19 2,7 5,14 10,20 1,2 2,3 3,5 1,1 1,1 2,2 4,4 10,9 15,12 14,8 31,11 48,6 4,-1 7,-2 11,-4 5,-2 9,-5 14,-9l5 -5c0,0 0,0 0,0 0,0 0,0 1,0 0,-1 1,-1 1,-2 2,-2 3,-3 4,-5 1,-2 4,-7 5,-9 5,-11 6,-17 6,-29 0,-5 0,-10 -1,-14l-3 -8c-6,-15 -18,-27 -32,-34 -16,-8 -38,-8 -54,0 -4,2 -7,4 -10,6 -9,5 -17,15 -21,25 -3,6 -6,16 -6,24z"/>
  </g>
 </g>
</svg>
