<?xml version="1.0" encoding="UTF-8"?>
<!DOCTYPE svg PUBLIC "-//W3C//DTD SVG 1.1//EN" "http://www.w3.org/Graphics/SVG/1.1/DTD/svg11.dtd">
<!-- Creator: CorelDRAW X7 -->
<svg xmlns="http://www.w3.org/2000/svg" xml:space="preserve" width="151.362mm" height="171.803mm" version="1.1" style="shape-rendering:geometricPrecision; text-rendering:geometricPrecision; image-rendering:optimizeQuality; fill-rule:evenodd; clip-rule:evenodd"
viewBox="0 0 2657 3016"
 xmlns:xlink="http://www.w3.org/1999/xlink">
 <defs>
  <style type="text/css">
   <![CDATA[
    .fil0 {fill:#FEFEFE}
   ]]>
  </style>
 </defs>
 <g id="Слой_x0020_1">
  <metadata id="CorelCorpID_0Corel-Layer"/>
  <g id="_1472314594368">
   <path class="fil0" d="M1364 1646c-6,-1 -12,-2 -17,-1 -57,-6 -100,-54 -100,-111 0,-28 -22,-50 -49,-50 -28,0 -50,22 -50,50 0,95 64,178 156,204l0 49c0,27 22,50 49,50 28,0 50,-23 50,-50l0 -46c106,-23 178,-121 167,-229 -12,-108 -102,-189 -211,-189 -62,0 -112,-51 -112,-113 0,-62 50,-112 112,-112 62,0 113,50 113,112 0,28 22,50 49,50 28,0 50,-22 50,-50 0,-100 -71,-186 -168,-207l0 -45c0,-27 -22,-49 -50,-49 -27,0 -49,22 -49,49l0 48c-102,28 -168,127 -154,232 14,105 104,184 209,183 62,0 112,50 113,111 1,61 -47,112 -108,114l0 0zm0 0z"/>
   <path class="fil0" d="M642 1376c0,396 321,717 717,717 397,0 718,-321 718,-717 0,-396 -321,-717 -718,-717 -396,0 -716,321 -717,717zm717 -619c342,0 619,277 619,619 0,341 -277,618 -619,618 -341,0 -618,-277 -618,-618 0,-342 277,-618 618,-619zm0 0z"/>
   <path class="fil0" d="M2321 2215l-388 183c-53,-99 -156,-163 -269,-166l-358 -10c-56,-1 -112,-16 -162,-42l-37 -18c-186,-98 -408,-97 -594,0l2 -82c1,-28 -21,-50 -48,-51l-392 -11c-28,-1 -51,21 -51,48l-24 861c-1,27 21,50 48,51l392 11 2 0c27,0 48,-22 49,-49l1 -41 102 -54c40,-22 87,-27 131,-15l608 171c1,1 2,1 3,1 44,9 89,14 134,14 95,0 189,-21 276,-60 2,-1 4,-2 6,-4l882 -570c22,-15 29,-44 17,-66 -66,-117 -211,-161 -330,-101l0 0zm-2221 665l21 -762 294 8 -21 762 -294 -8zm1601 -13c-107,49 -227,62 -343,39l-607 -171c-68,-19 -141,-11 -203,23l-53 27 14 -506c165,-110 377,-121 553,-30l36 19c64,33 134,51 206,53l357 10c101,3 186,75 207,173l-533 -15c-28,0 -50,21 -51,48 -1,28 21,50 48,51l588 16 1 0c27,0 49,-21 50,-48 0,-21 -1,-43 -5,-64l397 -188c1,0 1,0 2,0 56,-29 124,-19 171,24l-835 539zm0 0z"/>
   <path class="fil0" d="M1409 519l0 -470c0,-27 -22,-49 -50,-49 -27,0 -49,22 -49,49l0 470c0,28 22,50 49,50 28,0 50,-22 50,-50zm0 0z"/>
   <path class="fil0" d="M1780 519l0 -222c0,-28 -22,-50 -50,-50 -27,0 -49,22 -49,50l0 222c0,28 22,50 49,50 28,0 50,-22 50,-50zm0 0z"/>
   <path class="fil0" d="M1038 519l0 -222c0,-28 -22,-50 -50,-50 -27,0 -49,22 -49,50l0 222c0,28 22,50 49,50 28,0 50,-22 50,-50zm0 0z"/>
  </g>
 </g>
</svg>
