<?xml version="1.0" encoding="UTF-8"?>
<!DOCTYPE svg PUBLIC "-//W3C//DTD SVG 1.1//EN" "http://www.w3.org/Graphics/SVG/1.1/DTD/svg11.dtd">
<!-- Creator: CorelDRAW X7 -->
<svg xmlns="http://www.w3.org/2000/svg" xml:space="preserve" width="213.981mm" height="210.989mm" version="1.1" style="shape-rendering:geometricPrecision; text-rendering:geometricPrecision; image-rendering:optimizeQuality; fill-rule:evenodd; clip-rule:evenodd"
viewBox="0 0 6444 6354"
 xmlns:xlink="http://www.w3.org/1999/xlink">
 <defs>
  <style type="text/css">
   <![CDATA[
    .fil0 {fill:#FEFEFE}
   ]]>
  </style>
 </defs>
 <g id="Слой_x0020_1">
  <metadata id="CorelCorpID_0Corel-Layer"/>
  <g id="_1472405070736">
   <path class="fil0" d="M4705 2965c-293,0 -530,-237 -530,-529 0,-293 237,-530 530,-530 292,0 529,237 529,530 0,292 -237,529 -529,529zm0 -847c-176,0 -318,142 -318,318 0,175 142,317 318,317 175,0 317,-142 317,-317 0,-176 -142,-318 -317,-318zm0 0z"/>
   <path class="fil0" d="M1740 2965c-293,0 -530,-237 -530,-529 0,-293 237,-530 530,-530 292,0 529,237 529,530 0,292 -237,529 -529,529zm0 -847c-176,0 -318,142 -318,318 0,175 142,317 318,317 175,0 317,-142 317,-317 0,-176 -142,-318 -317,-318zm0 0z"/>
   <path class="fil0" d="M5340 3647l1010 -917c118,-110 126,-295 18,-415 -108,-120 -292,-131 -414,-26l-760 676 -1069 0 -797 974 0 -2668 1059 0 0 423 1745 0 -254 -635 254 -635 -1215 0 0 -424 -1801 0 0 3939 -797 -974 -1069 0 -760 -676c-122,-106 -306,-94 -414,26 -108,120 -100,305 19,415l1009 917 0 2495 -1059 0 0 212 6354 0 0 -212 -1059 0 0 -2495zm-423 -3012l902 0 -169 424 169 424 -1220 0 0 -212 318 0 0 -636zm-1589 -423l1377 0 0 847 -1377 0 0 -847zm-1165 5930l-317 0 0 -1482 -212 0 0 1482 -318 0 0 -2588 -1079 -981c-30,-28 -36,-74 -13,-109 14,-20 35,-33 59,-36 24,-3 48,4 67,20l820 729 1049 0 787 962c31,37 26,91 -10,122 -37,30 -91,25 -122,-11l-711 -829 0 2721zm1906 0l-1694 0 0 -2150 339 395c98,115 266,138 392,54 4,-3 7,-6 11,-9l0 863 212 0 0 -863c4,3 7,7 11,10 126,83 293,60 391,-54l338 -396 0 2150zm1059 0l-317 0 0 -1482 -212 0 0 1482 -318 0 0 -2721 -711 829c-28,33 -77,40 -113,15 -20,-13 -34,-34 -37,-58 -4,-24 3,-49 18,-67l787 -963 1050 0 820 -729c18,-17 42,-24 66,-21 24,3 46,17 60,38 22,34 17,80 -14,108l-1079 981 0 2588zm0 0z"/>
  </g>
 </g>
</svg>
