<?xml version="1.0" encoding="UTF-8"?>
<!DOCTYPE svg PUBLIC "-//W3C//DTD SVG 1.1//EN" "http://www.w3.org/Graphics/SVG/1.1/DTD/svg11.dtd">
<!-- Creator: CorelDRAW X7 -->
<svg xmlns="http://www.w3.org/2000/svg" xml:space="preserve" width="22.8185mm" height="22.9153mm" version="1.1" style="shape-rendering:geometricPrecision; text-rendering:geometricPrecision; image-rendering:optimizeQuality; fill-rule:evenodd; clip-rule:evenodd"
viewBox="0 0 653 656"
 xmlns:xlink="http://www.w3.org/1999/xlink">
 <defs>
  <style type="text/css">
   <![CDATA[
    .fil0 {fill:#FEFEFE}
   ]]>
  </style>
 </defs>
 <g id="Слой_x0020_1">
  <metadata id="CorelCorpID_0Corel-Layer"/>
  <path class="fil0" d="M160 0l334 0c87,0 159,72 159,160l0 336c0,88 -72,160 -159,160l-334 0c-88,0 -160,-72 -160,-160l0 -336c0,-88 72,-160 160,-160zm120 276c0,7 0,14 0,20l-3 17c0,2 -1,3 -1,4 -2,3 -2,5 -4,7 -3,3 -8,2 -11,1l-4 -3c-5,-3 -8,-8 -12,-12l-4 -7c-1,0 -1,0 -1,-1l-10 -14c-1,-3 -3,-6 -4,-8 -1,-1 -1,-1 -1,-2l-4 -6c-1,-2 -2,-4 -3,-6l-4 -8c-1,-1 -1,-1 -1,-2 -1,-2 -2,-4 -3,-6 -1,-1 -1,-2 -1,-2l-2 -4c-1,-1 -1,-2 -1,-3l-6 -12c0,-1 0,-2 -1,-2 0,-1 0,-1 -1,-3 0,-1 0,0 -1,-2 0,0 0,-1 -1,-2 0,-1 -1,-2 -3,-3 -2,-1 -3,-2 -6,-3 -1,-1 -3,-1 -4,-1l-64 0c-2,0 -8,1 -9,2 -2,1 -3,1 -4,4 -1,3 0,6 0,8 2,4 1,2 2,5 2,3 8,16 8,17 1,2 4,8 5,10l4 10c1,1 2,1 2,3 1,1 0,1 1,1 1,1 0,2 1,3l3 6c0,0 0,0 1,1l2 4c0,1 1,2 1,3 1,0 1,0 1,1l1 2c0,1 1,1 1,1l2 5c1,1 6,11 8,14 0,1 1,1 1,2l1 2c1,1 1,1 1,1l3 6c1,1 1,1 2,2 1,2 2,5 4,7l2 4c2,3 3,5 4,7l15 22c1,2 3,4 4,6l2 2c0,0 0,0 0,1 1,0 1,0 1,1 0,0 1,1 1,1l4 5c1,2 3,4 5,6l13 15c0,0 0,0 0,0l19 17c1,1 6,5 8,6 0,0 0,1 1,1 0,0 1,0 1,0 1,1 1,1 2,2l3 2c2,1 4,2 6,3l9 5c2,1 4,2 5,2 1,1 2,1 3,1 1,1 1,1 2,1l3 2c1,0 1,0 2,0 2,1 2,1 3,1 1,1 2,1 3,1 0,1 2,1 3,1 1,0 1,1 2,1l21 4c2,0 4,1 7,1 4,0 21,0 25,0 2,0 5,0 7,0 4,0 7,-2 10,-3 2,-1 4,-3 5,-5 1,-3 2,-5 2,-9 0,-1 0,-1 0,-3 0,-1 0,-2 0,-3 0,-2 0,-2 0,-3l2 -9 2 -8c0,-1 0,-2 1,-3 0,-1 0,-1 1,-2 1,-1 1,-3 2,-4 3,-4 7,-7 11,-7 3,0 5,1 8,2l5 4c2,1 3,3 4,4 1,1 5,4 6,6l9 10c2,2 3,4 5,5 1,2 7,9 9,10 1,1 1,1 1,2 1,1 4,3 5,4 2,2 4,2 5,3 0,1 0,1 1,1 1,1 1,1 2,1 0,1 1,1 1,1 1,0 1,1 2,1 0,0 1,0 1,1 1,0 1,0 2,1 1,0 2,0 3,1 2,1 6,2 8,2 2,0 14,0 16,0l48 0c6,0 6,0 12,-2 1,0 1,-1 3,-1 1,0 2,-1 3,-1 2,-2 6,-6 6,-9l0 -5 -2 -4c0,-2 -3,-5 -4,-8 -1,-2 -2,-4 -4,-6l-5 -7c-1,-2 -2,-3 -4,-4 -1,-2 -2,-4 -4,-6l-4 -4c-1,-1 -2,-1 -2,-2l-4 -3c0,-1 0,-1 0,-1 -3,-3 -6,-6 -9,-9l-5 -5c-2,-1 -4,-3 -6,-5 0,0 0,0 0,0l-9 -8c0,-1 0,-1 -1,-2 -2,-2 -5,-5 -7,-8 0,-1 0,-1 0,-2 -1,0 -1,-1 -2,-1 0,-2 -1,-5 -1,-7 0,-1 1,-4 1,-5 1,-1 1,-1 1,-2l2 -3c1,-1 1,-3 2,-5 1,0 1,-1 2,-2l3 -5c2,-2 4,-6 7,-8l31 -42c1,-1 1,-1 2,-2l2 -4c0,0 1,-1 1,-2 0,0 1,-1 1,-1l7 -11c1,-2 1,-1 2,-3 0,0 0,-1 0,-1 1,-1 1,-1 1,-2l4 -8c1,-1 1,-1 1,-2 1,-2 1,-2 1,-5 1,-1 1,-1 1,-2 1,-3 1,-5 1,-8 0,0 -2,-3 -2,-4 -1,0 -1,-1 -2,-1 -1,-1 -1,-1 -2,-1 -2,-1 -4,-1 -5,-1 -2,-1 -3,-1 -6,-1l-77 0 -5 1c-2,2 -4,4 -5,6 -1,2 -1,5 -2,7l-3 6c0,1 -1,2 -1,3 -1,0 -1,1 -1,2 -1,1 -1,2 -1,3l-3 5c0,0 0,1 -1,2 0,1 0,1 -1,2 0,1 0,1 0,2 -1,1 -2,4 -3,6 -2,3 -3,6 -5,9l-1 3c-1,1 -2,3 -3,4l-9 16c-1,0 -1,1 -2,2l-4 6c-1,2 -2,3 -3,5 -2,2 -4,5 -6,8l-5 5c-1,1 -2,1 -2,2 -1,1 -1,1 -2,2 -1,1 -3,2 -4,3 -2,1 -5,3 -8,2 -2,0 -2,-1 -3,-2 -2,-1 -1,0 -3,-3 -2,-2 -1,-1 -2,-3 -1,-1 -1,-3 -1,-4 -2,-4 -2,-20 -2,-24 1,-2 0,-6 1,-8l0 -30c0,-3 0,-5 0,-8 0,-1 1,-2 0,-3 0,-6 1,-12 0,-18 0,-3 -1,-4 -2,-7 0,-2 -3,-6 -5,-7l-9 -3c-2,0 -4,-1 -7,-2 -1,0 -2,0 -3,0l-12 -1 -29 0c-3,0 -6,0 -8,0 -2,0 -3,1 -5,1 -2,0 -5,0 -8,1 -1,0 -2,0 -4,1 -1,0 -2,0 -3,0 -2,1 -3,1 -4,2l-3 1c-1,0 -1,0 -1,1 -2,2 -2,0 -6,5 -2,1 -4,5 -1,6 3,0 3,0 6,1 0,0 1,0 2,1l4 2c1,0 1,0 2,1 1,0 2,1 3,3 1,0 1,0 1,1 1,1 1,1 1,1l2 3c1,2 1,3 2,5 0,3 1,5 1,8 1,6 1,5 2,12 0,1 0,1 0,2 0,2 0,5 0,7 0,2 0,6 0,9z"/>
 </g>
</svg>
